<svg xmlns="http://www.w3.org/2000/svg" xmlns:xlink="http://www.w3.org/1999/xlink" width="35" height="35" viewBox="0 0 35 35">
  <defs>
    <clipPath id="clip-path">
      <rect id="Rectangle_3007" data-name="Rectangle 3007" width="22.798" height="16.396" fill="#fff"/>
    </clipPath>
  </defs>
  <g id="Discord_Icon" data-name="Discord Icon" transform="translate(-1001 -85)">
    <g id="Ellipse_25" data-name="Ellipse 25" transform="translate(1001 85)" fill="none" stroke="#fff" stroke-width="1">
      <circle cx="17.5" cy="17.5" r="17.5" stroke="none"/>
      <circle cx="17.5" cy="17.5" r="17" fill="none"/>
    </g>
    <g id="Group_5448" data-name="Group 5448" transform="translate(1007.101 94.303)">
      <g id="Group_5447" data-name="Group 5447" clip-path="url(#clip-path)">
        <path id="Path_4283" data-name="Path 4283" d="M19.987,2.049A9.652,9.652,0,0,0,14.5,0l-.273.312a12.989,12.989,0,0,1,4.86,2.479A15.914,15.914,0,0,0,13.214.917,16.519,16.519,0,0,0,9.271.956,1.914,1.914,0,0,0,8.94,1a14.652,14.652,0,0,0-4.431,1.23c-.722.332-1.152.566-1.152.566A13.168,13.168,0,0,1,8.491.234L8.3,0A9.652,9.652,0,0,0,2.811,2.049,26.139,26.139,0,0,0,0,13.429,7.077,7.077,0,0,0,5.953,16.4s.722-.878,1.308-1.62a6.07,6.07,0,0,1-3.416-2.3s.2.137.547.332a.266.266,0,0,0,.078.059c.059.039.117.059.176.1a11.431,11.431,0,0,0,1.425.664,16.38,16.38,0,0,0,2.869.839,13.674,13.674,0,0,0,5.055.019,12.846,12.846,0,0,0,2.83-.839,11.167,11.167,0,0,0,2.245-1.152,6.159,6.159,0,0,1-3.533,2.323c.585.742,1.288,1.581,1.288,1.581A7.135,7.135,0,0,0,22.8,13.429a26.139,26.139,0,0,0-2.811-11.38M7.749,11.614A2.092,2.092,0,0,1,5.758,9.447,2.079,2.079,0,0,1,7.749,7.281,2.067,2.067,0,0,1,9.74,9.447a2.08,2.08,0,0,1-1.991,2.167m7.124,0a2.092,2.092,0,0,1-1.991-2.167,2.08,2.08,0,0,1,1.991-2.166,2.08,2.08,0,0,1,1.991,2.166,2.08,2.08,0,0,1-1.991,2.167" transform="translate(0 0)" fill="#fff"/>
      </g>
    </g>
  </g>
</svg>
