<svg xmlns="http://www.w3.org/2000/svg" width="35" height="35" viewBox="0 0 35 35">
  <g id="Facebook_Icon" data-name="Facebook Icon" transform="translate(-946 -85)">
    <path id="Path_4285" data-name="Path 4285" d="M1302.943,11910.311c0-1.1.011-2.205-.007-3.307,0-.3.077-.41.39-.395.585.023,1.17,0,1.754.01.245.008.348-.064.383-.324.1-.795.235-1.586.373-2.375.052-.295-.042-.383-.332-.373-.7.018-1.4,0-2.105.02-.328.012-.489-.051-.465-.43.035-.568,0-1.137.022-1.705a1.439,1.439,0,0,1,1.3-1.469,6.243,6.243,0,0,1,1.35-.045c.315.012.4-.1.389-.4-.02-.6-.016-1.2,0-1.8.007-.283-.058-.416-.372-.449a10.64,10.64,0,0,0-2.694-.109,3.6,3.6,0,0,0-3.283,3.676c-.03.783-.019,1.568,0,2.355,0,.281-.079.377-.366.371-.651-.014-1.3.01-1.955,0-.263,0-.393.055-.385.359.02.783.016,1.568,0,2.355,0,.258.073.354.339.346.651-.016,1.3.008,1.955-.008.28-.008.415.035.412.371-.016,2.223-.021,4.445,0,6.666.006.529-.3.311-.513.271a10.578,10.578,0,1,1,4.48-.035,3.221,3.221,0,0,0-.342.068c-.291.107-.333-.033-.332-.283C1302.947,11912.549,1302.943,11911.432,1302.943,11910.311Z" transform="translate(-337.785 -11800.975)" fill="#fff"/>
    <g id="Ellipse_26" data-name="Ellipse 26" transform="translate(946 85)" fill="none" stroke="#fff" stroke-width="1">
      <circle cx="17.5" cy="17.5" r="17.5" stroke="none"/>
      <circle cx="17.5" cy="17.5" r="17" fill="none"/>
    </g>
  </g>
</svg>
