<svg xmlns="http://www.w3.org/2000/svg" width="35" height="35" viewBox="0 0 35 35">
  <g id="Instagram_Icon" data-name="Instagram Icon" transform="translate(-891 -85)">
    <g id="Group_10" data-name="Group 10" transform="translate(898.799 92.798)">
      <path id="Path_4250" data-name="Path 4250" d="M1374.9,11912.355h-4.173a5.481,5.481,0,0,1-5.386-4.3,5.775,5.775,0,0,1-.132-1.242c-.011-2.77-.008-5.541-.005-8.312a5.482,5.482,0,0,1,4.466-5.447,5.89,5.89,0,0,1,1.065-.1q4.165-.012,8.329,0a5.476,5.476,0,0,1,5.432,4.463,5.059,5.059,0,0,1,.095.951c.007,2.836.021,5.674,0,8.512a5.456,5.456,0,0,1-4.615,5.4,5.811,5.811,0,0,1-.9.072C1377.685,11912.359,1376.294,11912.355,1374.9,11912.355Zm0-1.863c1.4,0,2.8,0,4.206,0a3.62,3.62,0,0,0,3.623-3.605q.019-4.225,0-8.447a3.625,3.625,0,0,0-3.645-3.617q-4.182,0-8.363,0a3.634,3.634,0,0,0-3.658,3.658q0,4.181,0,8.361a3.646,3.646,0,0,0,3.646,3.65C1372.113,11910.5,1373.509,11910.492,1374.905,11910.492Z" transform="translate(-1365.203 -11892.953)" fill="#fff"/>
      <path id="Path_4251" data-name="Path 4251" d="M1371.322,11904.13a5.057,5.057,0,1,1,5.043,5.06A5.067,5.067,0,0,1,1371.322,11904.13Zm5.051,3.191a3.19,3.19,0,1,0-3.182-3.2A3.19,3.19,0,0,0,1376.373,11907.321Z" transform="translate(-1366.679 -11894.433)" fill="#fff"/>
      <path id="Path_4252" data-name="Path 4252" d="M1383.268,11898.62a1.157,1.157,0,1,1,1.152,1.154A1.154,1.154,0,0,1,1383.268,11898.62Z" transform="translate(-1369.562 -11894.04)" fill="#fff"/>
    </g>
    <g id="Ellipse_27" data-name="Ellipse 27" transform="translate(891 85)" fill="none" stroke="#fff" stroke-width="1">
      <circle cx="17.5" cy="17.5" r="17.5" stroke="none"/>
      <circle cx="17.5" cy="17.5" r="17" fill="none"/>
    </g>
  </g>
</svg>
