<svg id="LogoCMC" xmlns="http://www.w3.org/2000/svg" xmlns:xlink="http://www.w3.org/1999/xlink" width="160.236" height="95.182" viewBox="0 0 160.236 95.182">
  <defs>
    <clipPath id="clip-path">
      <rect id="Rectangle_2926" data-name="Rectangle 2926" width="160.236" height="95.182" fill="#fff"/>
    </clipPath>
  </defs>
  <g id="Group_5421" data-name="Group 5421" clip-path="url(#clip-path)">
    <path id="Path_4258" data-name="Path 4258" d="M481.143,24.666a8.74,8.74,0,0,0,3.312,3.312,11.772,11.772,0,0,0,11-.232,18.113,18.113,0,0,0,4.238-3.5,22.2,22.2,0,0,0,2.9-4.053l.176-.325q1.359-2.117,2.834-4.77.463-.046.88-.046a1.562,1.562,0,0,1,.6.116.4.4,0,0,1,.278.394,3.7,3.7,0,0,1-.533,1.227q-.533.95-1.2,2.177a26.436,26.436,0,0,0-1.2,2.5,5.869,5.869,0,0,0-.533,2.2A5.333,5.333,0,0,0,504,24.712a3.145,3.145,0,0,0,.44,1.089,2.569,2.569,0,0,0,.95.857,3.489,3.489,0,0,0,1.691.347,3.669,3.669,0,0,0,2.5-1.195,17.615,17.615,0,0,0,2.085-2.412c0,.013,0,.027,0,.04a4.931,4.931,0,0,0,.278,1.807,2.722,2.722,0,0,0,.741,1.089,2.529,2.529,0,0,0,.973.533,3.855,3.855,0,0,0,1.019.139q1.343,0,3.15-2.022a16.909,16.909,0,0,1-2.571,3.578,4.025,4.025,0,0,1-2.9,1.408,5.072,5.072,0,0,1-1.065-.093q-.417-.093-.695-.185a2.532,2.532,0,0,1-.51-.278.943.943,0,0,0-.718.463,3.641,3.641,0,0,0-.556,1.181,4.533,4.533,0,0,0-.162,1.528,3.4,3.4,0,0,0,.463,1.529,3.138,3.138,0,0,0,1.3,1.181,5.106,5.106,0,0,0,2.362.463,4.98,4.98,0,0,0,3.474-1.413,15.527,15.527,0,0,0,2.8-3.59,40.528,40.528,0,0,0,2.385-4.841q1.112-2.663,2.2-5.188a48.79,48.79,0,0,1,2.246-4.586,9.526,9.526,0,0,1,2.548-3.08q.6-.417-.232-1.019a5.544,5.544,0,0,0-3.057-.6,1.3,1.3,0,0,0-.949.628,11.448,11.448,0,0,0-1.043,1.7q-.6.931-1.482,2.188t-1.76,2.42a21.449,21.449,0,0,1-1.644,1.955q-.764.792-1.181.791a.482.482,0,0,1-.556-.465,3,3,0,0,1,.208-1.21,11.263,11.263,0,0,1,.741-1.652A19.81,19.81,0,0,1,518.57,16q.6-.884,1.2-1.676a12.858,12.858,0,0,1,1.065-1.257.424.424,0,0,0,.093-.465,1.117,1.117,0,0,0-.487-.536,3.856,3.856,0,0,0-1.135-.442,7.774,7.774,0,0,0-1.853-.186q-.232,0-.741.6a17.52,17.52,0,0,0-1.158,1.575q-.649.973-1.343,2.246-.365.67-.691,1.353c-.087.143-.18.293-.281.454a15.623,15.623,0,0,1-1.135,1.575,13.033,13.033,0,0,1-1.227,1.32,1.684,1.684,0,0,1-1.019.556q-.463,0-.347-.418a9.39,9.39,0,0,1,.44-1.163q.323-.743.672-1.744a6.543,6.543,0,0,0,.347-2.163,3.1,3.1,0,0,0-.556-1.907,5.6,5.6,0,0,0-1.2-1.209,6.53,6.53,0,0,0-1.76-.791,1.592,1.592,0,0,0-.44-1.209,2.751,2.751,0,0,0-.95-.6,5.972,5.972,0,0,0-1.39-.232,13.651,13.651,0,0,1-1.135,3.821,33.137,33.137,0,0,1-2.015,3.821q-.84,1.366-1.668,2.507-.158.136-.323.272a15.222,15.222,0,0,1-3.057,1.945,8.157,8.157,0,0,1-3.613.834,6.587,6.587,0,0,1-4.632-1.459,6.242,6.242,0,0,1-1.945-3.636,11.118,11.118,0,0,1,.3-4.725,15.219,15.219,0,0,1,2.154-4.724A14.021,14.021,0,0,1,492.306,4.7a7.751,7.751,0,0,1,4.54-1.459,2.38,2.38,0,0,1,1.829.672,2.887,2.887,0,0,1,.741,1.691,5.568,5.568,0,0,1-.232,2.2,8.169,8.169,0,0,1-1.019,2.2A6,6,0,0,1,496.5,11.7a3.851,3.851,0,0,1-2.2.672,2.553,2.553,0,0,1-1.992-.6,2.025,2.025,0,0,1-.51-1.344,4.465,4.465,0,0,1,.463-1.992,3.437,3.437,0,0,0-2.224.787,6,6,0,0,0-1.575,1.969,7.176,7.176,0,0,0-.741,2.571A5.882,5.882,0,0,0,488,16.328a4.164,4.164,0,0,0,1.459,1.969,4.619,4.619,0,0,0,2.849.788,8.924,8.924,0,0,0,4.841-1.413,13.932,13.932,0,0,0,3.821-3.543,15.345,15.345,0,0,0,2.339-4.586,9.727,9.727,0,0,0,.394-4.586,5.787,5.787,0,0,0-2.061-3.543A7.6,7.6,0,0,0,496.661,0a14.3,14.3,0,0,0-6.022,1.251A16.959,16.959,0,0,0,485.8,4.562a19.376,19.376,0,0,0-3.52,4.679,21.114,21.114,0,0,0-2.038,5.373,18.364,18.364,0,0,0-.44,5.373,11,11,0,0,0,1.343,4.678" transform="translate(-402.192)" fill="#fff"/>
    <path id="Path_4259" data-name="Path 4259" d="M868.492,36.148a.654.654,0,0,0-.579-.324.942.942,0,0,0-.51.185q-.371.371-1.2,1.181a8.457,8.457,0,0,1-1.853,1.366,11.584,11.584,0,0,0,.718-2.733,5.027,5.027,0,0,0-.185-2.293,3.083,3.083,0,0,0-1.274-1.6,4.647,4.647,0,0,0-2.547-.6,7.39,7.39,0,0,0-2.849.51,6.2,6.2,0,0,0-2.038,1.32,5.14,5.14,0,0,0-1.2,1.876,4.578,4.578,0,0,0-.291,1.632l-.5.753a18.322,18.322,0,0,1-1.2,1.621,10.188,10.188,0,0,1-1.413,1.413,2.264,2.264,0,0,1-1.389.6q-.417,0-.232-.95a11.775,11.775,0,0,1,.834-2.409,35.358,35.358,0,0,1,1.691-3.266,34.612,34.612,0,0,1,2.293-3.474q.648,0,1.366.023t1.413.07a.927.927,0,0,0,.741-.324,2.557,2.557,0,0,0,.44-.741,2.652,2.652,0,0,0,.185-.788c.015-.247-.008-.4-.069-.463h-.7q-.232,0-.6.023t-.973.023q.787-.787,1.575-1.459a11.189,11.189,0,0,1,1.575-1.135.591.591,0,0,0,.347-.695,1.629,1.629,0,0,0-.556-.788,4.343,4.343,0,0,0-1.089-.648,3.172,3.172,0,0,0-1.25-.278,4.058,4.058,0,0,0-2.339,1.366,26.818,26.818,0,0,0-3.08,3.543q-1.066-.092-2.131-.139a2.624,2.624,0,0,0-1.065.139,2.27,2.27,0,0,0-.9.533,1.422,1.422,0,0,0-.417.811,1.057,1.057,0,0,0,.44.926h.7q.323,0,.764.023a8.078,8.078,0,0,0,1.042-.023,47.715,47.715,0,0,0-3.034,5.373,24.484,24.484,0,0,0-1.9,5.188,6.989,6.989,0,0,0,.023,3.891q.556,1.529,2.733,1.529a3.363,3.363,0,0,0,1.969-.718,10.083,10.083,0,0,0,2.015-2.038q.371-.481.745-1.036c0,.068,0,.135,0,.2a4,4,0,0,0,.787,2.524,3.194,3.194,0,0,0,2.687,1.019,5.134,5.134,0,0,0,3.219-1.343,15.342,15.342,0,0,0,2.988-3.335,3.516,3.516,0,0,0,1.945-.6,9.417,9.417,0,0,0,1.714-1.436,13.818,13.818,0,0,0,1.413-1.76q.625-.926,1.042-1.621a.585.585,0,0,0-.023-.648m-11.279,5.466q-1.066,0-.6-1.019a4.251,4.251,0,0,0,.649.44q.37.208.741.394a1.737,1.737,0,0,1-.787.185m4.655-6.207a6.107,6.107,0,0,1-.44,1.668,12.94,12.94,0,0,1-.926,1.853,4.031,4.031,0,0,1-1.992-.787,7.882,7.882,0,0,1,.718-.718,3.5,3.5,0,0,0,.486-.486q.231-.231-.208-.95a2.284,2.284,0,0,0-1.6-.949,2.224,2.224,0,0,1,1.366-1.042,5.875,5.875,0,0,1,1.552-.255.9.9,0,0,1,.857.463,2.079,2.079,0,0,1,.185,1.2" transform="translate(-708.366 -19.935)" fill="#fff"/>
    <path id="Path_4260" data-name="Path 4260" d="M58.687,144.759a10.192,10.192,0,0,0,2.366-3.191,6.538,6.538,0,0,0,.681-3.191q-.108-1.471-1.255-1.47a4.52,4.52,0,0,1-3.908-1.828A8.852,8.852,0,0,1,55.1,130.2a25.031,25.031,0,0,1,.86-7.1,46.591,46.591,0,0,1,3.083-8.5,63.45,63.45,0,0,1,5.234-9.034,62.266,62.266,0,0,1,7.313-8.747,8.771,8.771,0,0,1,1.972-1.577,5.263,5.263,0,0,1,1.4-.538,5.131,5.131,0,0,1,.861-.107.254.254,0,0,0,.286-.287,2.48,2.48,0,0,0-.968-2.008,4.94,4.94,0,0,0-3.119-.789,15.3,15.3,0,0,0-7.636,2.043,32.006,32.006,0,0,0-6.776,5.162,54.93,54.93,0,0,0-5.879,6.883q-2.725,3.764-4.911,7.206t-3.8,6.166a17.928,17.928,0,0,1-2.689,3.728,6.842,6.842,0,0,0,.932-2.975q.43-2.474.9-5.808t1.147-6.955a42.074,42.074,0,0,1,1.685-6.417,13.815,13.815,0,0,0,5.342-.036,15.489,15.489,0,0,0,4.445-1.613,11.227,11.227,0,0,0,3.083-2.474,4.639,4.639,0,0,0,1.255-2.653,2.385,2.385,0,0,0-1.075-2.115,6.618,6.618,0,0,0-3.872-.86,17.589,17.589,0,0,0-6.525,1.219,27.126,27.126,0,0,0-5.951,3.3q-1.435-.716-3.011-1.506t-3.262-1.47a24.655,24.655,0,0,0-3.477-1.111,15.023,15.023,0,0,0-3.513-.43q-7.17,0-10.647,2.724t-3.477,7.959a7.289,7.289,0,0,0,1.506,4.947,7.667,7.667,0,0,0,3.334,2.33,6.027,6.027,0,0,0,3.334.251q1.506-.358,1.506-1.362a4.413,4.413,0,0,1-.645-1.721,3.958,3.958,0,0,1,.215-1.9,6.088,6.088,0,0,1,1.577-2.33,9.289,9.289,0,0,1,2.581-1.864,9.17,9.17,0,0,1,2.832-.825,14.748,14.748,0,0,1,3.083-.036q1.614.144,3.334.43a77.149,77.149,0,0,0-7.313,8.317q-3.442,4.517-6.489,8.389a55.621,55.621,0,0,1-5.843,6.453,8.21,8.21,0,0,1-5.449,2.581,7.141,7.141,0,0,1-3.585-.753,6.808,6.808,0,0,1-2.008-1.685A6.219,6.219,0,0,1,5.2,120.275,3.575,3.575,0,0,0,2.547,121.6a9.313,9.313,0,0,0-1.9,3.262A12.172,12.172,0,0,0,0,129.129,8.682,8.682,0,0,0,1.149,133.4a8.865,8.865,0,0,0,3.477,3.262,12.894,12.894,0,0,0,6.31,1.327,10.942,10.942,0,0,0,6.13-1.864,24.293,24.293,0,0,0,5.341-4.911,54.946,54.946,0,0,0,4.8-6.919q2.294-3.872,4.445-7.887t4.266-7.851a56.321,56.321,0,0,1,4.338-6.776,62.232,62.232,0,0,0-2.76,6.238q-1.255,3.3-2.366,6.524T32.947,120.7a45.1,45.1,0,0,1-2.223,5.162,14.809,14.809,0,0,1-2.438,3.549,3.927,3.927,0,0,1-2.868,1.326q-.717,0-.9,1.147a4.453,4.453,0,0,0,.394,2.474,6.566,6.566,0,0,0,2.008,2.474,6.151,6.151,0,0,0,3.943,1.147,8.906,8.906,0,0,0,5.234-1.721,21.841,21.841,0,0,0,4.625-4.553,52.306,52.306,0,0,0,4.194-6.417q2.006-3.585,3.979-7.277t3.979-7.17a39.573,39.573,0,0,1,4.23-6.058q-2.3,3.442-4.373,7.349a72.641,72.641,0,0,0-3.657,7.995A59.224,59.224,0,0,0,46.57,128.3a35.131,35.131,0,0,0-.932,7.815,11.906,11.906,0,0,0,.574,3.656A9.989,9.989,0,0,0,47.932,143a8.869,8.869,0,0,0,2.868,2.33,8.744,8.744,0,0,0,4.087.9,5.381,5.381,0,0,0,3.8-1.47M49.366,95.611a3.655,3.655,0,0,1,1.828.287q.393.287,0,.645a3.689,3.689,0,0,1-1.47.645,10.108,10.108,0,0,1-2.581.287,1.141,1.141,0,0,1-.287-.036,1.206,1.206,0,0,0-.287-.036,3.425,3.425,0,0,1,2.8-1.792" transform="translate(0 -76.126)" fill="#fff"/>
    <path id="Path_4261" data-name="Path 4261" d="M398.486,96.233q.931-.716-.359-1.613t-4.732-.9q-.933,0-2.079,1.792a4.246,4.246,0,0,0-.6-.593.551.551,0,0,0,.175-.44,13.291,13.291,0,0,1,.255-2.386,27.406,27.406,0,0,1,.718-2.895q.463-1.529,1.065-3.173t1.3-3.266a6.977,6.977,0,0,0,.023,1.274,3.332,3.332,0,0,0,.324,1.135,2.027,2.027,0,0,0,.787.834,2.592,2.592,0,0,0,1.366.324,5.989,5.989,0,0,0,3.567-1.162,11.921,11.921,0,0,0,2.826-2.88,14.95,14.95,0,0,0,1.9-3.74,14.6,14.6,0,0,0,.811-3.739,5.745,5.745,0,0,0-.44-2.881,1.943,1.943,0,0,0-1.9-1.162,4.253,4.253,0,0,0-2.085.564,10.426,10.426,0,0,0-1.992,1.458,9.787,9.787,0,0,1,.926-1.128.179.179,0,0,0,.023-.305,1.3,1.3,0,0,0-.533-.282,7.307,7.307,0,0,0-.9-.212,6.562,6.562,0,0,0-1.135-.094,3.408,3.408,0,0,0-2.27,1.323,22.314,22.314,0,0,0-2.548,3.365A47.526,47.526,0,0,0,390.454,80q-1.227,2.506-2.2,4.9t-1.552,4.34a11.411,11.411,0,0,0-.579,2.923,2.344,2.344,0,0,0,.486,1.555l.02.021a9.254,9.254,0,0,0-4.956,1.886,21.2,21.2,0,0,0-4.624,4.625,25.408,25.408,0,0,0-2.335,3.834q-.485.633-1.034,1.256a18.623,18.623,0,0,1-2.223,2.151,3.5,3.5,0,0,1-2.151.932q-1.22,0-.9-1.462a11.452,11.452,0,0,1,1.434-3.318,20.6,20.6,0,0,1,2.689-3.532,8.165,8.165,0,0,1,2.94-2.177c.143-.047.19-.3.143-.748a3.046,3.046,0,0,0-.717-1.5,5.515,5.515,0,0,0-1.972-1.463,8.232,8.232,0,0,0-3.549-.642,4.417,4.417,0,0,0-2.151.645,18.044,18.044,0,0,0-2.4,1.649,25.463,25.463,0,0,0-2.545,2.366q-1.291,1.363-2.438,2.724a24.325,24.325,0,0,1,2.043-3.011,8.9,8.9,0,0,1,2.043-1.936q.5-.358.359-.789a1.587,1.587,0,0,0-.717-.789,5.82,5.82,0,0,0-1.434-.609,6.391,6.391,0,0,0-1.793-.251,4.126,4.126,0,0,0-2.617,1.219,17.6,17.6,0,0,0-2.76,3.155,42.461,42.461,0,0,0-2.653,4.338q-.348.647-.671,1.289-.73.969-1.587,1.938a17.767,17.767,0,0,1-2.294,2.187,3.645,3.645,0,0,1-2.187.932q-.79,0-.825-.717a4.607,4.607,0,0,1,.43-1.864,17.591,17.591,0,0,1,1.326-2.545q.86-1.4,1.864-2.8t1.972-2.581q.968-1.183,1.757-1.972.5-.5-.645-1.47t-4.589-.968q-.5,0-2.079,2.008a3.928,3.928,0,0,0-1.685-1.47,5.948,5.948,0,0,0-2.617-.538,9.2,9.2,0,0,0-5.485,1.9,20.547,20.547,0,0,0-4.588,4.625,25.688,25.688,0,0,0-3.155,5.771,14.971,14.971,0,0,0-1.183,5.27,7,7,0,0,0,1.506,4.66,4.42,4.42,0,0,0,3.442,1.792,4.931,4.931,0,0,0,3.513-1.649,20.6,20.6,0,0,0,2.94-3.728,6.2,6.2,0,0,0,.5,2.689,4.5,4.5,0,0,0,1.291,1.649,4.45,4.45,0,0,0,1.649.824,6.794,6.794,0,0,0,1.649.215,5.2,5.2,0,0,0,3.047-1.111,13.9,13.9,0,0,0,2.332-2.191c0,.025,0,.052,0,.076a1.615,1.615,0,0,0,.681,1.219,6.27,6.27,0,0,0,1.614.968,10.711,10.711,0,0,0,1.936.61,8.04,8.04,0,0,0,1.577.215q1.146,0,1.147-.86a8.317,8.317,0,0,1,.681-2.832,29.955,29.955,0,0,1,1.756-3.693q1.076-1.936,2.4-3.908a41.16,41.16,0,0,1,2.689-3.585,21.716,21.716,0,0,1,2.51-2.581,3.307,3.307,0,0,1,1.936-.968,26.746,26.746,0,0,0-3.226,4.23,24.97,24.97,0,0,0-2.187,4.23,12.242,12.242,0,0,0-.968,4.66,5.746,5.746,0,0,0,.573,2.725,4.757,4.757,0,0,0,1.434,1.685,5.049,5.049,0,0,0,1.793.824,7.68,7.68,0,0,0,1.721.215,5.085,5.085,0,0,0,3.047-1.156,16.629,16.629,0,0,0,3.119-3.215c.192-.251.384-.515.577-.785a6.485,6.485,0,0,0,1.429,3.435,4.48,4.48,0,0,0,3.513,1.792,3.568,3.568,0,0,0,2.223-.932,15.525,15.525,0,0,0,2.295-2.366,29.247,29.247,0,0,1-4.087,5.628,6.255,6.255,0,0,1-4.517,2.259,7.853,7.853,0,0,1-1.649-.143q-.645-.145-1.075-.287a3.914,3.914,0,0,1-.788-.43,1.461,1.461,0,0,0-1.112.717,5.634,5.634,0,0,0-.86,1.828,7.017,7.017,0,0,0-.251,2.366,5.258,5.258,0,0,0,.717,2.366,4.854,4.854,0,0,0,2.007,1.828,5.35,5.35,0,0,0,1.04.4,27.219,27.219,0,0,0-2.283,2.846q-1.459,2.062-2.9,4.563t-2.571,4.841l-.106.221c-.228.313-.47.625-.728.937a10.182,10.182,0,0,1-1.413,1.413,2.264,2.264,0,0,1-1.39.6q-.788,0-.533-1a9.9,9.9,0,0,1,1-2.316,25.106,25.106,0,0,1,1.737-2.663,19.146,19.146,0,0,1,1.737-2.084.384.384,0,0,0,.046-.417,1.113,1.113,0,0,0-.486-.533,3.883,3.883,0,0,0-1.112-.44,7.527,7.527,0,0,0-1.83-.185.682.682,0,0,0-.44.278,6.8,6.8,0,0,0-.533.672,8.929,8.929,0,0,0-.487.764,5.219,5.219,0,0,1-.347.556q-.511.788-1.366,2.038t-1.76,2.432a25.8,25.8,0,0,1-1.714,2.038q-.811.858-1.227.857-.788,0-.533-1a9.468,9.468,0,0,1,1.019-2.316,25.852,25.852,0,0,1,1.783-2.663q1.018-1.343,1.714-2.084.324-.324-.417-.95a4.89,4.89,0,0,0-2.965-.625q-.232,0-.787.671a19.486,19.486,0,0,0-1.251,1.737q-.695,1.066-1.459,2.386c-.184.317-.359.636-.531.956l-.164.249a16.049,16.049,0,0,1-1.2,1.6,10.846,10.846,0,0,1-1.413,1.39,2.263,2.263,0,0,1-1.389.6q-.417,0-.232-.882a13.415,13.415,0,0,1,.764-2.276,29.032,29.032,0,0,1,1.552-3.111,37.5,37.5,0,0,1,2.154-3.368,27.357,27.357,0,0,1,2.548-3.065,12.417,12.417,0,0,1,2.756-2.206q.463-.278.347-.673a1.645,1.645,0,0,0-.556-.766,4.345,4.345,0,0,0-1.088-.651,3.172,3.172,0,0,0-1.251-.279,3.4,3.4,0,0,0-1.922,1,19.731,19.731,0,0,0-2.5,2.617,44.631,44.631,0,0,0-2.687,3.706,42.073,42.073,0,0,0-2.455,4.262q-.726,1.454-1.3,2.865a18.807,18.807,0,0,1-1.968,1.86,15.237,15.237,0,0,1-3.057,1.945,8.157,8.157,0,0,1-3.613.834A6.588,6.588,0,0,1,328.2,146.7a6.242,6.242,0,0,1-1.945-3.636,11.119,11.119,0,0,1,.3-4.725,15.228,15.228,0,0,1,2.154-4.725,14.032,14.032,0,0,1,3.567-3.636,7.752,7.752,0,0,1,4.54-1.459,2.381,2.381,0,0,1,1.83.672,2.888,2.888,0,0,1,.741,1.691,5.567,5.567,0,0,1-.232,2.2,8.161,8.161,0,0,1-1.019,2.2,5.991,5.991,0,0,1-1.668,1.691,3.85,3.85,0,0,1-2.2.672,2.552,2.552,0,0,1-1.992-.6,2.025,2.025,0,0,1-.509-1.343,4.469,4.469,0,0,1,.463-1.992A3.438,3.438,0,0,0,330,134.5a6,6,0,0,0-1.575,1.969,7.174,7.174,0,0,0-.741,2.571,5.881,5.881,0,0,0,.278,2.571,4.166,4.166,0,0,0,1.459,1.969,4.621,4.621,0,0,0,2.849.787,8.925,8.925,0,0,0,4.841-1.413,13.934,13.934,0,0,0,3.821-3.543,15.344,15.344,0,0,0,2.339-4.586,9.724,9.724,0,0,0,.394-4.586,5.788,5.788,0,0,0-2.061-3.543,7.6,7.6,0,0,0-4.98-1.413,14.3,14.3,0,0,0-6.022,1.251,16.959,16.959,0,0,0-4.84,3.312,19.385,19.385,0,0,0-3.521,4.679,21.1,21.1,0,0,0-2.038,5.373,18.356,18.356,0,0,0-.44,5.373,11,11,0,0,0,1.343,4.678,8.741,8.741,0,0,0,3.312,3.312,11.773,11.773,0,0,0,11-.232,18.115,18.115,0,0,0,4.238-3.5q.235-.265.457-.531a4.024,4.024,0,0,0,.608,2.245,2.722,2.722,0,0,0,2.432,1,3.315,3.315,0,0,0,1.969-.735,10.651,10.651,0,0,0,2.015-2.045l.079-.1a3.258,3.258,0,0,0,.338,1.171,3.076,3.076,0,0,0,.926,1.089,3.265,3.265,0,0,0,1.158.533,4.964,4.964,0,0,0,1.112.139,3.265,3.265,0,0,0,1.992-.857,13.574,13.574,0,0,0,2.27-2.478,3.966,3.966,0,0,0,.3,1.668,2.888,2.888,0,0,0,.741,1.019,2.467,2.467,0,0,0,.949.509,3.855,3.855,0,0,0,1.019.139,3.361,3.361,0,0,0,1.969-.718,8.728,8.728,0,0,0,1.371-1.263,1.057,1.057,0,0,0,.482.731,4.547,4.547,0,0,0,1.158.625,10.62,10.62,0,0,0,1.367.417,5.046,5.046,0,0,0,1.065.162q.741,0,.741-.6a10.305,10.305,0,0,1,.185-3.011,6.713,6.713,0,0,0,.232,1.32,3.926,3.926,0,0,0,.533,1.181,2.746,2.746,0,0,0,.9.834,2.618,2.618,0,0,0,1.343.324,4.782,4.782,0,0,0,3.057-1.162,11.743,11.743,0,0,0,2.525-2.88,16.239,16.239,0,0,0,1.737-3.74,14.192,14.192,0,0,0,.718-3.74,6.066,6.066,0,0,0-.486-2.88,1.942,1.942,0,0,0-1.9-1.162,4.6,4.6,0,0,0-2.663.927,17.34,17.34,0,0,0-2.525,2.177,32.923,32.923,0,0,1,3.4-4.99,14.269,14.269,0,0,1,3.822-3.363q.462-.275.347-.667a1.055,1.055,0,0,0-.061-.155,8.491,8.491,0,0,0,2.279-1.507,23.054,23.054,0,0,0,4.338-5.557,65.127,65.127,0,0,0,3.692-7.528q1.721-4.122,3.406-7.994A77.705,77.705,0,0,1,394.543,101a14.743,14.743,0,0,1,3.943-4.768m-1.2-18.564q.74-.973,1.528-1.83a11.383,11.383,0,0,1,1.529-1.413,2.285,2.285,0,0,1,1.3-.556q.463,0,.139,1.019a11.937,11.937,0,0,1-1.042,2.27,12.318,12.318,0,0,1-1.668,2.27,2.6,2.6,0,0,1-1.783,1.019,1.367,1.367,0,0,1-.95-.278,1.3,1.3,0,0,1-.394-.695q.6-.834,1.343-1.807m-55.619,22.866q-.467.79-.9,1.577v.072q-.145.287-.753,1.326a23.215,23.215,0,0,1-1.47,2.187,13.923,13.923,0,0,1-1.864,2.043,3.034,3.034,0,0,1-2.007.9q-.79,0-.609-1.577a11.225,11.225,0,0,1,1.075-3.477,12.722,12.722,0,0,1,2.438-3.477,4.754,4.754,0,0,1,3.477-1.577,1.905,1.905,0,0,1,1.506.5q-.43.717-.9,1.506m28.7,41.257a10.464,10.464,0,0,1,1.505-1.413,2.286,2.286,0,0,1,1.3-.556q.463,0,.139,1.019a11.921,11.921,0,0,1-1.042,2.27,12.946,12.946,0,0,1-1.645,2.27,2.532,2.532,0,0,1-1.76,1.019,1.3,1.3,0,0,1-.949-.3,1.427,1.427,0,0,1-.394-.672q.556-.834,1.32-1.807t1.529-1.83m18.579-41.759q-.575.86-1.542,2.295t-2.115,2.832a28.745,28.745,0,0,1-2.223,2.438,2.964,2.964,0,0,1-1.721,1.04q-.79,0-.609-1.577a11.219,11.219,0,0,1,1.076-3.477,12.7,12.7,0,0,1,2.438-3.477,4.682,4.682,0,0,1,3.406-1.577,2.054,2.054,0,0,1,1.721.645Z" transform="translate(-268.033 -59.326)" fill="#fff"/>
    <path id="Path_4262" data-name="Path 4262" d="M799.582,219.642a1.041,1.041,0,0,0-.86.5q-.43.645-1.327,1.9a30.848,30.848,0,0,1-2.007,2.509,17.764,17.764,0,0,1-2.294,2.187,3.644,3.644,0,0,1-2.187.932q-.789,0-.825-.717a4.606,4.606,0,0,1,.43-1.864,17.579,17.579,0,0,1,1.327-2.545q.86-1.4,1.864-2.8t1.972-2.581q.968-1.183,1.757-1.972.5-.5-.645-1.47t-4.589-.968q-.5,0-2.079,2.008a3.931,3.931,0,0,0-1.685-1.47,5.953,5.953,0,0,0-2.617-.538,9.2,9.2,0,0,0-5.485,1.9,20.559,20.559,0,0,0-4.589,4.625,25.712,25.712,0,0,0-3.155,5.772,14.97,14.97,0,0,0-1.183,5.27,7,7,0,0,0,1.506,4.66,4.419,4.419,0,0,0,3.441,1.792,4.932,4.932,0,0,0,3.513-1.649A20.613,20.613,0,0,0,782.8,231.4a6.2,6.2,0,0,0,.5,2.689,4.5,4.5,0,0,0,1.291,1.649,4.45,4.45,0,0,0,1.649.824,6.791,6.791,0,0,0,1.649.215,5.205,5.205,0,0,0,3.047-1.111,15.633,15.633,0,0,0,3.119-3.155,39.729,39.729,0,0,0,3.19-4.947q1.613-2.9,3.262-6.417a1.133,1.133,0,0,0-.072-1.04.946.946,0,0,0-.86-.466M787,219.57q-.467.79-.9,1.577v.072q-.145.287-.753,1.326a23.357,23.357,0,0,1-1.47,2.187,13.928,13.928,0,0,1-1.864,2.043,3.035,3.035,0,0,1-2.008.9q-.789,0-.609-1.577a11.223,11.223,0,0,1,1.076-3.477,12.714,12.714,0,0,1,2.438-3.477,4.754,4.754,0,0,1,3.477-1.577,1.905,1.905,0,0,1,1.506.5q-.43.717-.9,1.506" transform="translate(-646.687 -178.361)" fill="#fff"/>
  </g>
</svg>
