<svg xmlns="http://www.w3.org/2000/svg" xmlns:xlink="http://www.w3.org/1999/xlink" width="35" height="35" viewBox="0 0 35 35">
  <defs>
    <clipPath id="clip-path">
      <rect id="Rectangle_3008" data-name="Rectangle 3008" width="21.798" height="19.608" fill="none"/>
    </clipPath>
  </defs>
  <g id="OpenSea_Icon" data-name="OpenSea Icon" transform="translate(-1049 -85)">
    <g id="Ellipse_24" data-name="Ellipse 24" transform="translate(1049 85)" fill="none" stroke="#fff" stroke-width="1">
      <circle cx="17.5" cy="17.5" r="17.5" stroke="none"/>
      <circle cx="17.5" cy="17.5" r="17" fill="none"/>
    </g>
    <g id="Group_5450" data-name="Group 5450" transform="translate(1055.951 91.979)">
      <g id="Group_5449" data-name="Group 5449" clip-path="url(#clip-path)">
        <path id="Path_4284" data-name="Path 4284" d="M21.8,12.542v1.131c0,.071-.035.106-.106.141a5.425,5.425,0,0,0-2.084,1.413c-1.307,1.8-2.3,4.381-4.487,4.381H5.9A5.918,5.918,0,0,1,0,13.673v-.106a.152.152,0,0,1,.141-.141H5.335a.189.189,0,0,1,.177.177,1.967,1.967,0,0,0,.177.989,1.8,1.8,0,0,0,1.625.989H9.857V13.6H7.349a.159.159,0,0,1-.141-.247.488.488,0,0,0,.106-.141c.247-.353.565-.848.919-1.449a8.547,8.547,0,0,0,.636-1.272,1.722,1.722,0,0,0,.106-.247c.035-.141.106-.283.141-.389l.106-.318a5.956,5.956,0,0,0,.106-1.166,2.5,2.5,0,0,0-.035-.495c0-.177-.035-.353-.035-.53a2.068,2.068,0,0,0-.071-.459,5,5,0,0,0-.141-.707l-.035-.071a2.285,2.285,0,0,0-.141-.459A13.182,13.182,0,0,0,8.373,4.24l-.212-.53c-.106-.247-.212-.495-.318-.707C7.808,2.9,7.737,2.826,7.7,2.72S7.6,2.508,7.561,2.4L7.455,2.19l-.318-.565c-.035-.071.035-.177.106-.141l1.943.53.247.071.283.071.106.035V1.025A1.018,1.018,0,0,1,10.811,0a.986.986,0,0,1,.707.283A.986.986,0,0,1,11.8.989v1.7l.212.071a.035.035,0,0,1,.035.035,1.345,1.345,0,0,0,.212.177,1.537,1.537,0,0,0,.247.212c.177.141.424.353.671.565.071.071.141.106.177.177a13.978,13.978,0,0,1,1.025,1.025c.106.106.177.212.283.318s.177.247.283.353c.106.141.247.318.353.459a1.536,1.536,0,0,1,.141.247c.141.212.247.424.389.636.035.106.106.212.141.318a2.587,2.587,0,0,1,.283.883.384.384,0,0,1,.035.177.689.689,0,0,1,.035.283,4,4,0,0,1-.035.919c-.035.141-.071.247-.106.389a2.684,2.684,0,0,1-.141.389,7.476,7.476,0,0,1-.389.742,3.258,3.258,0,0,1-.177.283,1.239,1.239,0,0,0-.177.283c-.071.106-.177.212-.247.318a1.941,1.941,0,0,1-.247.318c-.106.141-.247.283-.353.424a1.632,1.632,0,0,1-.247.247,1.632,1.632,0,0,1-.247.247,2.286,2.286,0,0,1-.318.283l-.212.177a.13.13,0,0,1-.106.035H11.765v1.978h1.943a1.756,1.756,0,0,0,1.166-.424c.106-.106.6-.53,1.2-1.166.035-.035.035-.035.071-.035l5.37-1.555c.212-.106.283-.035.283.071" fill="#fff"/>
      </g>
    </g>
  </g>
</svg>
